<svg baseProfile="full" xmlns="http://www.w3.org/2000/svg" viewBox="0 0 455 109" preserveAspectRatio="xMidYMid meet">
  <path d="M293.8 97.7c1.4 4.5 5.8 7.8 10.6 7.6 4.8-.1 9.2-3.5 10.8-7.9a11 11 0 0 0-3.7-12.3 12 12 0 0 0-9.4-1.9c-6.5.8-10.2 8.7-8.3 14.5zm-7.3-20c.6 2.5 3 4.5 5.6 4.7 6.1.4 8.8-8.2 3.2-11-3.8-2.1-9.8 1.7-8.8 6.3zm16.4-5.7c-.5 1.6-.4 3.5.8 4.7 3.2 3.3 9.2 2.2 9.2-2.9-.1-4.9-8.5-6.6-10-1.8zM317 83.6c3.8 1.1 6.9-3.9 4-6.7-.9-.8-2-1.1-3.2-1-1.3.1-2.5.8-3.1 1.9-1.4 2.2-.3 5 2.3 5.8zm2.2 7.8c.3.7.7 1.3 1.4 1.7 2.3 1.3 5.6 0 6.2-2.6.9-3.5-2.8-5.6-5.8-4.2-1.8.9-2.5 3.3-1.8 5.1zm39.7-4.2c-1-3.3-5.6-5.3-9.3-5.2-4.7.2-7.9 3.6-7.9 9.1 0 5.6 3.7 9.2 8 9.4 3.3.1 7.6-1.8 9.7-4.7l4.2 5a18 18 0 0 1-14.1 7c-8.9.1-16.4-7.9-16.6-16.3a16.3 16.3 0 0 1 15.8-17c2.8 0 5.8.2 8.4 1.8l2-2 5.4 3.7-5.6 9.2zm22.2 20.9A14 14 0 0 1 366 95.3c-.9-9.4 5.9-16 14.2-16.3 7.9-.3 14.4 6.7 14.3 14.3-.2 8-5.2 14.4-13.4 14.8zm-.9-22.9c-4.1.1-7.8 4.7-7.4 9.5.3 4.6 3.7 7.1 7.9 7.1 4.1 0 7.3-4.1 7.3-8.3-.1-4.1-3.8-8.4-7.8-8.3zm46.1 22.9l1.5-18.1c.5-6.3-6.9-6.2-7.3-.4 0 0-.4 3.6-1.2 14.9l2 1.2-.4 3.3-9.6-.6c1.6-14.2 2-20.8 2-20.8.4-4-6.2-5.4-6.6.7l-1.5 18.5-9.8-.9.4-4.8 2.6-.9 1.2-20.3-2.9-1.1.3-3.6 9.7.8-.1 4.2c1.7-1.7 3.8-2.3 6.7-2.1 2.3.2 5 1.7 5.7 3.8 1.9-2.2 4.9-2.8 7.3-2.7 5.2.3 8.7 4.4 8.3 10.3l-1.2 13.7 2.1 1.2-.4 4.5-8.8-.8z" fill="#ffffff"/>
  <path d="M294.8 94.7c1.4 4.5 5.8 7.8 10.6 7.6 4.8-.1 9.2-3.5 10.8-7.9a11 11 0 0 0-3.7-12.3 12 12 0 0 0-9.4-1.9c-6.5.8-10.2 8.7-8.3 14.5zm-7.3-20c.6 2.5 3 4.5 5.6 4.7 6.1.4 8.8-8.2 3.2-11-3.8-2.1-9.8 1.7-8.8 6.3zm16.4-5.7c-.5 1.6-.4 3.5.8 4.7 3.2 3.3 9.2 2.2 9.2-2.9-.1-4.9-8.5-6.6-10-1.8zM318 80.6c3.8 1.1 6.9-3.9 4-6.7-.9-.8-2-1.1-3.2-1-1.3.1-2.5.8-3.1 1.9-1.4 2.2-.3 5 2.3 5.8zm2.2 7.8c.3.7.7 1.3 1.4 1.7 2.3 1.3 5.6 0 6.2-2.6.9-3.5-2.8-5.6-5.8-4.2-1.8.9-2.5 3.3-1.8 5.1zm39.7-4.2c-1-3.3-5.6-5.3-9.3-5.2-4.7.2-7.9 3.6-7.9 9.1 0 5.6 3.7 9.2 8 9.4 3.3.1 7.6-1.8 9.7-4.7l4.2 5a18 18 0 0 1-14.1 7c-8.9.1-16.4-7.9-16.6-16.3a16.3 16.3 0 0 1 15.8-17c2.8 0 5.8.2 8.4 1.8l2-2 5.4 3.7-5.6 9.2zm22.2 20.9A14 14 0 0 1 367 92.3c-.9-9.4 5.9-16 14.2-16.3 7.9-.3 14.4 6.7 14.3 14.3-.2 8-5.2 14.4-13.4 14.8zm-.9-22.9c-4.1.1-7.8 4.7-7.4 9.5.3 4.6 3.7 7.1 7.9 7.1 4.1 0 7.3-4.1 7.3-8.3-.1-4.1-3.8-8.4-7.8-8.3zm46.1 22.9l1.5-18.1c.5-6.3-6.9-6.2-7.3-.4 0 0-.4 3.6-1.2 14.9l2 1.2-.4 3.3-9.6-.6c1.6-14.2 2-20.8 2-20.8.4-4-6.2-5.4-6.6.7l-1.5 18.5-9.8-.9.4-4.8 2.6-.9 1.2-20.3-2.9-1.1.3-3.6 9.7.8-.1 4.2c1.7-1.7 3.8-2.3 6.7-2.1 2.3.2 5 1.7 5.7 3.8 1.9-2.2 4.9-2.8 7.3-2.7 5.2.3 8.7 4.4 8.3 10.3l-1.2 13.7 2.1 1.2-.4 4.5-8.8-.8z" fill="#ffffff"/>
  <path d="M182.9 54.1v7.7c-1.3.3-2.7.4-4.2.3-6.5-.3-13.4-5.1-13-15.5l.6-17.7-5.6-.2.3-7 6-.9.4-14.3 8.3.3-.4 14.2 13.1.4-.5 6.8-12.8-.4-.5 18.4c-.2 3.8.5 7.6 5 7.9h3.3zm77.2-10.5l1.1 11.2 5.8.6.6 6.8-19.6 1.6-.6-5.3 4.5-1.4-3.7-40.3-4.1-.6-.6-6.4c8.7-1.7 14.8-1.9 20.1-2 12.6-.3 18.4 8.5 18.9 15.6.8 10-4.7 18.2-22.4 20.2zm-2.5-27.4l2.2 19.1c12.9-1 13.7-7 13.1-11.5-.6-3.8-2.2-9.3-15.3-7.6zm35.6 23.2c.1 3.6 4.1 6.3 7.7 6.4 2.6.1 5.5-.9 7.2-2.6l4.3 5.5a14 14 0 0 1-11.4 4.4c-8.7-.2-16.8-6.4-16.1-18.5.6-11 9.2-15.7 16-15.7 5.4 0 15.7 3.5 14.7 19.7l-22.4.8zm7.6-13.1a7.5 7.5 0 0 0-7.2 6.4l14-.5c-.5-3.8-3.8-6-6.8-5.9zm40.8 28.3v7.3c-1.2.3-2.6.3-4 .3-6.1-.3-12.7-4.8-12.3-14.7l.6-16.8-5.3-.2.2-6.6 5.7-.8.4-13.6 7.9.3-.4 13.5 12.4.4-.5 6.4-12.1-.4-.5 17.4c-.2 3.6.4 7.2 4.7 7.5h3.2zM26.4 60l-.9-6.6 3.5-1.3-3.2-8.5-11.6 1.1-2.8 17.7L.9 63.5 0 57l4.3-1.6 6.3-38.6-3.3-1.1-.5-6 14.8-1.3 16.8 42.8 4.6.8.8 5.9L26.4 60zm-8.6-37.2l-2.2 14.8 7.9-.8-5.7-14zm211.4 34.4l-11.2-.9.3-2.7a8.7 8.7 0 0 1-5.6 1.8c-2.2 0-4.3-.5-6.3-1.4a13 13 0 0 1-5-4c-1.3-1.8-2-4-1.7-6.1.3-3.4 1.7-6 4.1-7.8 2.4-1.8 5.3-2.6 8.8-2.4 1.6.1 3 .3 4.2.8 1.2.5 2.1 1 2.8 1.6a6 6 0 0 0-.8-4 5.7 5.7 0 0 0-2.9-2.6c-1.4-.5-3-.6-4.5-.4-1.7.3-3.6 1.1-5.6 2.5l-2.9-5.7a16 16 0 0 1 18.8-1c1.9 1.3 3.3 2.7 4.1 4.3.8 1.6 1.3 3.4 1.5 5.4.2 2 .2 4.3-.1 6.8l-.8 8.5 3.4.3-.6 7zm-10.6-9.7l.4-5.2a9.6 9.6 0 0 0-4.9-2.1c-1.9-.2-3.4.1-4.4.9-1 .8-1.6 1.9-1.7 3.4-.1 1.1.2 2 .8 2.9.6.9 1.5 1.5 2.5 1.9 1 .4 2.2.5 3.5.3 1.2-.4 2.5-1 3.8-2.1zm-60.9-12c.2 2.1.2 4.1-.2 6.2-1.2 7-7 12.1-14.1 12.5-3.5.4-6.7-.2-9.9-2l1.5 15.5 6.3-.7.9 7.8-19.1 1.4-.5-6.3 4.3-.6-3.9-40.4-3.8.3-.6-6.3 12.2-1.6.4 4.6c4.2-3.6 10-4.7 15.2-3 1.9.6 3.7 1.5 5.3 2.7a15 15 0 0 1 3.9 4.4c1.2 1.5 1.8 3.4 2.1 5.5zm-9.1 2.1c0-2.2-.8-4.2-2.3-5.8a7.6 7.6 0 0 0-6-2.1c-1.5.1-2.9.6-4.4 1.4a7.7 7.7 0 0 0-3.3 3.1l.8 8.6c2 2.5 5.2 3.8 8.4 3.5 2-.2 3.7-1.2 4.9-2.7 1.4-1.6 2-3.6 1.9-6zm-31.5 2.3c-.3 2.4-1 4.5-2 6.5a16.1 16.1 0 0 1-9.1 8.1c-4.3 1.3-9 1-13.1-.8-2-.9-3.6-2.1-5-3.6a18 18 0 0 1-2.7-19.4c2-4.3 5.7-7.5 10.2-8.8 2.3-.7 4.6-1 7.1-.8 2.3.2 4.5.8 6.4 2 1.9 1.2 3.6 2.6 4.9 4.3 1.3 1.7 2.3 3.7 2.9 5.8.5 2.4.7 4.5.4 6.7zm-7.8-.5a10.7 10.7 0 0 0-4.5-9.7 7 7 0 0 0-6.8-.6 11 11 0 0 0-3.2 2.1c-2 2-3.1 4.5-3.3 7.3-.1 2.7.6 4.9 2.2 6.5a9.5 9.5 0 0 0 6 2.9c2.3.3 4.7-.6 6.3-2.3 1.8-1.6 3-3.8 3.3-6.2zM82.2 2.7v7.1l-4.6.3-.5 40.5 3.8-.2v7.2l-12.2.4.1-5.1a9 9 0 0 1-3.6 2.1c-1.6.5-3.1.7-4.5.8-4 0-8-1.4-11.1-4.1-1.5-1.3-2.7-3-3.7-4.9-1.9-4-2-8.7-.5-12.9 1.4-4.2 4.5-7.7 8.5-9.6 2.1-1 4.5-1.5 7.2-1.4 2.7 0 5.4.8 7.6 2.5V2.5l13.5.2zm-13.8 31a11 11 0 0 0-3.6-2.7 7 7 0 0 0-3.8-.8 8.8 8.8 0 0 0-8 6 8 8 0 0 0-.6 3c-.1 2.6.7 4.9 2.3 6.7a7.8 7.8 0 0 0 6.1 2.8c1.5.1 2.8-.3 4.1-1.1 1.3-.8 2.4-1.9 3.3-3.3l.2-10.6z" opacity=".5" fill="#ffffff"/>
  <path d="M185.4 52.3V60c-1.3.3-2.7.4-4.2.3-6.5-.3-13.4-5.1-13-15.5l.6-17.7-5.6-.2.3-7 6-.9.4-14.3 8.3.3-.4 14.2 13.1.4-.5 6.8-12.9-.4-.5 18.4c-.2 3.8.5 7.6 5 7.9h3.4zM28.3 57.7l-.9-6.7 3.5-1.3-3.2-8.5-11.6 1.1L13.3 60 2.8 61.1l-.9-6.5L6.2 53l6.3-38.6-3.3-1.1-.5-6L23.5 6l16.8 42.8 4.6.8.8 5.9-17.4 2.2zm-8.6-37.3l-2.2 14.8 7.9-.8-5.7-14zm242.4 21.2l1.1 11.2 5.8.6.6 6.8-19.6 1.6-.6-5.3 4.5-1.4-3.7-40.3-4.1-.6-.6-6.4c8.7-1.7 14.8-1.9 20.1-2 12.6-.3 18.4 8.5 18.9 15.6.8 10-4.7 18.2-22.4 20.2zm-2.5-27.4l2.2 19.1c12.9-1 13.7-7 13.1-11.5-.6-3.8-2.2-9.3-15.3-7.6zm35.6 23.2c.1 3.6 4.1 6.3 7.7 6.4 2.6.1 5.5-.9 7.2-2.6l4.3 5.5a14 14 0 0 1-11.4 4.4c-8.7-.2-16.8-6.4-16.1-18.5.6-11 9.2-15.7 16-15.7 5.4 0 15.7 3.5 14.7 19.7l-22.4.8zm7.6-13.1a7.5 7.5 0 0 0-7.2 6.4l14-.5c-.5-3.8-3.8-6-6.8-5.9zm40.8 28.3v7.3c-1.2.3-2.6.3-4 .3-6.1-.3-12.7-4.8-12.3-14.7l.6-16.8-5.3-.2.2-6.6 5.7-.8.4-13.6 7.9.3-.4 13.5 12.4.4-.5 6.4-12.1-.4-.5 17.4c-.2 3.6.4 7.2 4.7 7.5h3.2zm-112.2 2.8l-11.2-.9.3-2.7a8.7 8.7 0 0 1-5.6 1.8c-2.2 0-4.3-.5-6.3-1.4a13 13 0 0 1-5-4c-1.3-1.8-2-4-1.7-6.1.3-3.4 1.7-6 4.1-7.8 2.4-1.8 5.3-2.6 8.8-2.4 1.6.1 3 .3 4.2.8 1.2.5 2.1 1 2.8 1.6a6 6 0 0 0-.8-4 5.7 5.7 0 0 0-2.9-2.6c-1.4-.5-3-.6-4.5-.4-1.7.3-3.6 1.1-5.6 2.5l-3-5.8a16 16 0 0 1 18.8-1c1.9 1.3 3.3 2.7 4.1 4.3.8 1.6 1.3 3.4 1.5 5.4.2 2 .2 4.3-.1 6.8l-.8 8.5 3.4.3-.5 7.1zm-10.6-9.7l.4-5.2a9.6 9.6 0 0 0-4.9-2.1c-1.9-.2-3.4.1-4.4.9-1 .8-1.6 1.9-1.7 3.4-.1 1.1.2 2 .8 2.9.6.9 1.5 1.5 2.5 1.9 1 .4 2.2.5 3.5.3 1.2-.4 2.5-1 3.8-2.1zm-60.9-12.5c.2 2.1.2 4.1-.2 6.2-1.2 7-7 12.1-14.1 12.5-3.5.4-6.7-.2-9.9-2l1.5 15.5 6.3-.7.9 7.8-19.1 1.4-.5-6.3 4.3-.6-3.9-40.4-3.8.3-.6-6.3L133 19l.4 4.6c4.2-3.6 10-4.7 15.2-3 1.9.6 3.7 1.5 5.3 2.7a15 15 0 0 1 3.9 4.4 9 9 0 0 1 2.1 5.5zm-9 2.1c0-2.2-.8-4.2-2.3-5.8a7.6 7.6 0 0 0-6-2.1c-1.5.1-2.9.6-4.4 1.4a7.7 7.7 0 0 0-3.3 3.1l.8 8.6c2 2.5 5.2 3.8 8.4 3.5 2-.2 3.7-1.2 4.9-2.7 1.3-1.7 2-3.6 1.9-6zm-32.5 2.3c-.3 2.4-1 4.5-2 6.5a16.1 16.1 0 0 1-9.1 8.1c-4.3 1.3-9 1-13.1-.8-2-.9-3.6-2.1-5-3.6a18 18 0 0 1-2.7-19.4c2-4.3 5.7-7.5 10.2-8.8 2.2-.7 4.6-1 7.1-.8 2.3.2 4.5.8 6.4 2a17 17 0 0 1 8.2 16.8zm-7.8-.5a10.7 10.7 0 0 0-4.5-9.7 7 7 0 0 0-6.8-.6 11 11 0 0 0-3.2 2.1c-2 2-3.1 4.5-3.3 7.3-.1 2.7.6 4.9 2.2 6.5a9.5 9.5 0 0 0 6 2.9c2.3.3 4.7-.6 6.3-2.3.9-.8 1.6-1.8 2.2-2.9.6-1 1-2.1 1.1-3.3zM84.7.6v7.1l-4.6.3-.5 40.5 3.8-.2v7.2l-12.1.3.1-5.1a9 9 0 0 1-3.6 2.1c-1.6.5-3.1.7-4.5.8-2 0-4-.3-5.9-1-2.2-.6-3.9-1.6-5.4-3-1.5-1.3-2.7-3-3.7-4.9-1.9-4-2-8.7-.5-12.9 1.4-4.2 4.5-7.7 8.5-9.6 2.1-1 4.5-1.5 7.2-1.4 2.7 0 5.4.8 7.6 2.5V.4l13.6.2zm-13.8 31a11 11 0 0 0-3.6-2.7 7 7 0 0 0-3.8-.8 8.8 8.8 0 0 0-8 6 8 8 0 0 0-.6 3c-.1 2.6.7 4.9 2.3 6.7a7.8 7.8 0 0 0 6.1 2.8c1.5.1 2.8-.3 4.1-1.1 1.3-.8 2.4-1.9 3.3-3.3l.2-10.6z" fill="#ffffff"/>
  <path d="M442.7 107.9V101h-2.6v-.9h6.2v.9h-2.6v6.9h-1zm4.7 0V100h1.6l1.9 5.6.4 1.2.4-1.3 1.9-5.5h1.4v7.9h-1v-6.6l-2.3 6.6h-.9l-2.3-6.7v6.7h-1.1z" fill="#ffffff"/>
</svg>
